<!-- Generated by IcoMoon.io -->
<svg version="1.1" xmlns="http://www.w3.org/2000/svg" width="100" height="100" viewBox="0 0 100 100">
<path fill="#ddd" d="M85.762 56.707c-0.418 0-0.824 0-1.23 0-1.918-5.629-7.219-9.414-13.176-9.406-0.805 0.008-1.602 0.059-2.398 0.148-3.148-2.734-7.188-4.234-11.363-4.219-9.152 0-16.594 6.504-18.188 15.656-3.945 2.512-6.52 6.695-6.52 10.789 0.074 7.234 6.016 13.039 13.273 12.973h39.602c7.539 0 13.91-5.941 13.91-12.965s-6.371-12.977-13.91-12.977z"></path>
<path fill="#ccc" d="M94.344 75.836c-0.742 1.559-1.715 2.996-2.891 4.262 2.414-1.195 4.363-3.152 5.547-5.566 2.656-5.656 0.063-12.195-5.875-15 4.723 3.227 6.219 10.023 3.219 16.305z"></path>
<path fill="#f9a607" d="M50.441 42.73c-5.098 5.141-12.055 8.020-19.309 7.992-7.25-0.023-14.188-2.957-19.246-8.133l-0.16-0.168c2.203 16.648 16.328 29.574 33.406 29.637 8.93-0.016 17.48-3.59 23.75-9.93 6.27-6.336 9.738-14.91 9.629-23.813-0.012-16.078-11.289-29.961-27.059-33.316 9.598 10.906 9.16 27.348-1.012 37.73z"></path>
<path fill="#ffd74b" d="M70.141 50.246c-1.254 2.977-2.938 5.754-5 8.242 4.297-2.445 7.664-6.234 9.578-10.781 4.625-10.863 0.254-23.449-10.117-29.137 8.133 6.336 10.707 19.508 5.539 31.676z"></path>
<path fill="#eee" d="M52.93 69.535c-0.539 0-1.082 0-1.609-0.055-7.301-0.465-13.566-4.41-19.098-7.816l-0.941-0.59c-7.527-4.676-19.113-6.246-26.75 1.367-1.039 1.031-2.723 1.031-3.758-0.004s-1.035-2.715 0.004-3.746c6.789-6.77 20.109-10.316 33.313-2.109l0.945 0.59c5.246 3.266 10.621 6.645 16.621 7.059 5.457 0.406 10.832-1.52 14.785-5.293 1.039-1.035 2.719-1.035 3.758-0.004 1.039 1.035 1.039 2.711 0.004 3.746-4.641 4.445-10.84 6.906-17.273 6.855z"></path>
<path fill="#eee" d="M52.93 82.434c-0.539 0-1.082 0-1.609-0.051-7.301-0.469-13.566-4.414-19.098-7.816l-0.941-0.594c-7.527-4.676-19.113-6.246-26.75 1.367-1.039 1.035-2.723 1.031-3.758-0.004s-1.035-2.711 0.004-3.746c6.789-6.766 20.109-10.313 33.313-2.109l0.945 0.594c5.246 3.266 10.621 6.645 16.621 7.059 5.457 0.402 10.832-1.523 14.785-5.293 1.039-1.039 2.719-1.039 3.758-0.008 1.039 1.035 1.039 2.711 0.004 3.746-4.641 4.445-10.84 6.906-17.273 6.855z"></path>
<path fill="#eee" d="M52.922 95.336c-0.531 0-1.074 0-1.602-0.055-7.293-0.465-13.566-4.41-19.090-7.816l-0.949-0.59c-7.527-4.68-19.113-6.25-26.75 1.367-1.039 1.031-2.723 1.031-3.758-0.004s-1.035-2.715 0.004-3.746c6.789-6.77 20.109-10.316 33.313-2.109l0.953 0.59c5.238 3.266 10.621 6.645 16.613 7.059 5.457 0.406 10.832-1.52 14.785-5.293 1.039-1.035 2.719-1.039 3.758-0.004 1.039 1.031 1.039 2.711 0.004 3.746-4.641 4.445-10.844 6.906-17.281 6.855z"></path>
<path fill="#eee" d="M11.168 60.695c0-0.977-0.793-1.766-1.77-1.766s-1.77 0.789-1.77 1.766c0 0.973 0.793 1.762 1.77 1.762s1.77-0.789 1.77-1.762z"></path>
<path fill="#eee" d="M22.691 88.734c0-0.973-0.793-1.766-1.77-1.766-0.98 0-1.77 0.793-1.77 1.766 0 0.977 0.789 1.766 1.77 1.766 0.977 0 1.77-0.789 1.77-1.766z"></path>
<path fill="#eee" d="M46.266 74.617c0-0.973-0.793-1.766-1.77-1.766s-1.77 0.793-1.77 1.766c0 0.977 0.793 1.766 1.77 1.766s1.77-0.789 1.77-1.766z"></path>
<path fill="#eee" d="M66.246 86.090c0-0.977-0.789-1.766-1.77-1.766-0.977 0-1.77 0.789-1.77 1.766 0 0.973 0.793 1.762 1.77 1.762 0.98 0 1.77-0.789 1.77-1.762z"></path>
<path fill="#eee" d="M59.453 55.348c0-0.977-0.793-1.766-1.773-1.766-0.977 0-1.77 0.789-1.77 1.766 0 0.973 0.793 1.766 1.77 1.766 0.98 0 1.773-0.793 1.773-1.766z"></path>
</svg>
